# xmcd
#
# Track frame offsets:
#	150
#	20798
#	37486
#	51773
#	61898
#	79372
#	95580
#	109972
#	124259
#	138055
#	153507
#	167339
#	179529
#	193022
#	205789
#
# Disc length: 2896 seconds
#
# Revision: 2
# Processed by: cddbd v1.5.2PL0 Copyright (c) Steve Scherf et al.
# Submitted via: audiograbber 1.83.01
#
DISCID=d80b4e0f
DTITLE=Various Artist - CB60032
DYEAR=1900
DGENRE=Karaoke
TTITLE0=AMY GRANT - Tennessee Christmas
TTITLE1=ALABAMA - Christmas In Dixie
TTITLE2=ALAN JACKSON - I Only Want You For Christmas
TTITLE3=BRENDA LEE - Rockin' Around The Christmas Tree
TTITLE4=DOLLY PARTONy - Hard Candy Christmas
TTITLE5=ELMO and PATSY - Grandma Got Run Over By A Reindeer
TTITLE6=JERRY REED - Christmas Time's A Comin'
TTITLE7=DEBORAH ALLEN - Rockin' Little Christmas
TTITLE8=JIM REEVES - Old Christmas Card
TTITLE9=REBA MCENTIRE - A Christmas Letter
TTITLE10=RICKY VAN SHELTON - C-H-R-I-S-T-M-A-S
TTITLE11=WILLIE NELSON - Pretty Paper
TTITLE12=RANDY TRAVIS - How Do I Wrap My Heart Up For Christmas
TTITLE13=CLINT BLACK - Till Santa's Gone
TTITLE14=BUCK OWENS - Santa Looked A Lot Like Daddy
EXTD=
EXTT0=
EXTT1=
EXTT2=
EXTT3=
EXTT4=
EXTT5=
EXTT6=
EXTT7=
EXTT8=
EXTT9=
EXTT10=
EXTT11=
EXTT12=
EXTT13=
EXTT14=
PLAYORDER=
